<svg width="19" height="19" viewBox="0 0 19 19" fill="none" xmlns="http://www.w3.org/2000/svg">
<path d="M17.3953 13.2582V15.7566C17.3962 15.9885 17.3487 16.2181 17.2558 16.4306C17.1629 16.6431 17.0266 16.8338 16.8557 16.9906C16.6848 17.1474 16.483 17.2668 16.2633 17.3411C16.0436 17.4154 15.8108 17.443 15.5798 17.4221C13.0172 17.1437 10.5556 16.268 8.39287 14.8655C6.38072 13.5869 4.67477 11.8809 3.39617 9.86879C1.98875 7.69622 1.11288 5.22268 0.839523 2.64856C0.818712 2.41826 0.846081 2.18616 0.919887 1.96703C0.993693 1.74789 1.11232 1.54652 1.26821 1.37575C1.4241 1.20497 1.61385 1.06852 1.82536 0.975096C2.03688 0.881669 2.26553 0.833306 2.49676 0.833089H4.99511C5.39927 0.829111 5.79108 0.972229 6.09752 1.23577C6.40396 1.4993 6.60411 1.86528 6.66068 2.26548C6.76613 3.065 6.96169 3.85003 7.24363 4.6056C7.35567 4.90367 7.37992 5.22761 7.3135 5.53905C7.24708 5.85048 7.09278 6.13634 6.86887 6.36277L5.81124 7.4204C6.99675 9.50531 8.72303 11.2316 10.8079 12.4171L11.8656 11.3595C12.092 11.1356 12.3779 10.9813 12.6893 10.9148C13.0007 10.8484 13.3247 10.8727 13.6227 10.9847C14.3783 11.2667 15.1633 11.4622 15.9629 11.5677C16.3674 11.6247 16.7369 11.8285 17.001 12.1402C17.2651 12.4519 17.4054 12.8498 17.3953 13.2582Z" stroke="white" stroke-width="1.66557" stroke-linecap="round" stroke-linejoin="round"/>
</svg>
