<svg width="20" height="20" viewBox="0 0 20 20" fill="none" xmlns="http://www.w3.org/2000/svg">
<g clip-path="url(#clip0_59_12105)">
<path d="M15.8233 14.1574H17.4889C17.9886 14.1574 18.3217 13.8243 18.3217 13.3246V10.8263C18.3217 10.0768 17.7387 9.41056 17.0725 9.244C15.5735 8.82761 13.325 8.32794 13.325 8.32794C13.325 8.32794 12.2424 7.16204 11.4929 6.41254C11.0765 6.07942 10.5768 5.82959 9.99385 5.82959H4.16437C3.6647 5.82959 3.2483 6.1627 2.99847 6.57909L1.83257 8.99417C1.7223 9.31581 1.66602 9.65348 1.66602 9.99351V13.3246C1.66602 13.8243 1.99913 14.1574 2.4988 14.1574H4.16437" stroke="#4A5565" stroke-width="1.66557" stroke-linecap="round" stroke-linejoin="round"/>
<path d="M5.82963 15.8228C6.7495 15.8228 7.4952 15.0771 7.4952 14.1573C7.4952 13.2374 6.7495 12.4917 5.82963 12.4917C4.90976 12.4917 4.16406 13.2374 4.16406 14.1573C4.16406 15.0771 4.90976 15.8228 5.82963 15.8228Z" stroke="#4A5565" stroke-width="1.66557" stroke-linecap="round" stroke-linejoin="round"/>
<path d="M7.49414 14.1572H12.4908" stroke="#4A5565" stroke-width="1.66557" stroke-linecap="round" stroke-linejoin="round"/>
<path d="M14.1578 15.8228C15.0776 15.8228 15.8233 15.0771 15.8233 14.1573C15.8233 13.2374 15.0776 12.4917 14.1578 12.4917C13.2379 12.4917 12.4922 13.2374 12.4922 14.1573C12.4922 15.0771 13.2379 15.8228 14.1578 15.8228Z" stroke="#4A5565" stroke-width="1.66557" stroke-linecap="round" stroke-linejoin="round"/>
</g>
<defs>
<clipPath id="clip0_59_12105">
<rect width="19.9868" height="19.9868" fill="white"/>
</clipPath>
</defs>
</svg>
