<svg width="24" height="24" viewBox="0 0 24 24" fill="none" xmlns="http://www.w3.org/2000/svg">
<path d="M18.9878 16.9888H20.9865C21.5861 16.9888 21.9858 16.589 21.9858 15.9894V12.9914C21.9858 12.092 21.2863 11.2925 20.4868 11.0927C18.688 10.593 15.9898 9.99338 15.9898 9.99338C15.9898 9.99338 14.6906 8.5943 13.7912 7.6949C13.2916 7.29516 12.692 6.99536 11.9924 6.99536H4.99704C4.39744 6.99536 3.89777 7.3951 3.59797 7.89477L2.19889 10.7929C2.06656 11.1788 1.99902 11.584 1.99902 11.9921V15.9894C1.99902 16.589 2.39876 16.9888 2.99836 16.9888H4.99704" stroke="#00A63E" stroke-width="1.99868" stroke-linecap="round" stroke-linejoin="round"/>
<path d="M6.99575 18.9873C8.09959 18.9873 8.99443 18.0925 8.99443 16.9887C8.99443 15.8848 8.09959 14.99 6.99575 14.99C5.89191 14.99 4.99707 15.8848 4.99707 16.9887C4.99707 18.0925 5.89191 18.9873 6.99575 18.9873Z" stroke="#00A63E" stroke-width="1.99868" stroke-linecap="round" stroke-linejoin="round"/>
<path d="M8.99414 16.9888H14.9902" stroke="#00A63E" stroke-width="1.99868" stroke-linecap="round" stroke-linejoin="round"/>
<path d="M16.9889 18.9873C18.0928 18.9873 18.9876 18.0925 18.9876 16.9887C18.9876 15.8848 18.0928 14.99 16.9889 14.99C15.8851 14.99 14.9902 15.8848 14.9902 16.9887C14.9902 18.0925 15.8851 18.9873 16.9889 18.9873Z" stroke="#00A63E" stroke-width="1.99868" stroke-linecap="round" stroke-linejoin="round"/>
</svg>
