<svg width="24" height="24" viewBox="0 0 24 24" fill="none" xmlns="http://www.w3.org/2000/svg">
<path d="M19.9869 5.99609H3.99746C2.89362 5.99609 1.99878 6.89093 1.99878 7.99477V15.9895C1.99878 17.0933 2.89362 17.9882 3.99746 17.9882H19.9869C21.0907 17.9882 21.9856 17.0933 21.9856 15.9895V7.99477C21.9856 6.89093 21.0907 5.99609 19.9869 5.99609Z" stroke="white" stroke-width="1.99868" stroke-linecap="round" stroke-linejoin="round"/>
<path d="M11.9921 13.9905C13.0959 13.9905 13.9908 13.0957 13.9908 11.9918C13.9908 10.888 13.0959 9.99316 11.9921 9.99316C10.8882 9.99316 9.99341 10.888 9.99341 11.9918C9.99341 13.0957 10.8882 13.9905 11.9921 13.9905Z" stroke="white" stroke-width="1.99868" stroke-linecap="round" stroke-linejoin="round"/>
<path d="M5.99609 11.9922H6.00609M17.9882 11.9922H17.9982" stroke="white" stroke-width="1.99868" stroke-linecap="round" stroke-linejoin="round"/>
</svg>
