<svg width="20" height="20" viewBox="0 0 20 20" fill="none" xmlns="http://www.w3.org/2000/svg">
<g clip-path="url(#clip0_59_13916)">
<path d="M9.99316 1.66553V18.3212" stroke="#A1A1A1" stroke-width="1.66557" stroke-linecap="round" stroke-linejoin="round"/>
<path d="M14.1577 4.16406H7.91181C7.13877 4.16406 6.3974 4.47115 5.85078 5.01777C5.30416 5.56439 4.99707 6.30577 4.99707 7.0788C4.99707 7.85184 5.30416 8.59322 5.85078 9.13984C6.3974 9.68646 7.13877 9.99355 7.91181 9.99355H12.0757C12.8488 9.99355 13.5901 10.3006 14.1368 10.8473C14.6834 11.3939 14.9905 12.1352 14.9905 12.9083C14.9905 13.6813 14.6834 14.4227 14.1368 14.9693C13.5901 15.5159 12.8488 15.823 12.0757 15.823H4.99707" stroke="#A1A1A1" stroke-width="1.66557" stroke-linecap="round" stroke-linejoin="round"/>
</g>
<defs>
<clipPath id="clip0_59_13916">
<rect width="19.9868" height="19.9868" fill="white"/>
</clipPath>
</defs>
</svg>
