<svg width="32" height="32" viewBox="0 0 32 32" fill="none" xmlns="http://www.w3.org/2000/svg">
<path d="M25.3318 22.6653H27.9983C28.7982 22.6653 29.3315 22.132 29.3315 21.332V17.3323C29.3315 16.1323 28.3982 15.0657 27.3316 14.7991C24.9318 14.1325 21.332 13.3325 21.332 13.3325C21.332 13.3325 19.5988 11.466 18.3989 10.266C17.7322 9.73274 16.9323 9.33276 15.999 9.33276H6.66625C5.8663 9.33276 5.19968 9.86606 4.7997 10.5327L2.93315 14.3991C2.7566 14.914 2.6665 15.4547 2.6665 15.999V21.332C2.6665 22.132 3.1998 22.6653 3.99975 22.6653H6.66625" stroke="#171717" stroke-width="2.6665" stroke-linecap="round" stroke-linejoin="round"/>
<path d="M9.33276 25.3318C10.8054 25.3318 11.9993 24.1379 11.9993 22.6653C11.9993 21.1926 10.8054 19.9988 9.33276 19.9988C7.86009 19.9988 6.66626 21.1926 6.66626 22.6653C6.66626 24.1379 7.86009 25.3318 9.33276 25.3318Z" stroke="#171717" stroke-width="2.6665" stroke-linecap="round" stroke-linejoin="round"/>
<path d="M11.9993 22.6653H19.9988" stroke="#171717" stroke-width="2.6665" stroke-linecap="round" stroke-linejoin="round"/>
<path d="M22.6653 25.3318C24.1379 25.3318 25.3318 24.1379 25.3318 22.6653C25.3318 21.1926 24.1379 19.9988 22.6653 19.9988C21.1926 19.9988 19.9988 21.1926 19.9988 22.6653C19.9988 24.1379 21.1926 25.3318 22.6653 25.3318Z" stroke="#171717" stroke-width="2.6665" stroke-linecap="round" stroke-linejoin="round"/>
</svg>
