<svg width="20" height="20" viewBox="0 0 20 20" fill="none" xmlns="http://www.w3.org/2000/svg">
<g clip-path="url(#clip0_129_2070)">
<path d="M9.99358 2.49854H4.1641C3.72237 2.49854 3.29872 2.67401 2.98637 2.98637C2.67401 3.29872 2.49854 3.72237 2.49854 4.1641V15.8231C2.49854 16.2648 2.67401 16.6884 2.98637 17.0008C3.29872 17.3132 3.72237 17.4886 4.1641 17.4886H15.8231C16.2648 17.4886 16.6884 17.3132 17.0008 17.0008C17.3132 16.6884 17.4886 16.2648 17.4886 15.8231V9.99358" stroke="#FAFAFA" stroke-width="1.66557" stroke-linecap="round" stroke-linejoin="round"/>
<path d="M15.3021 2.18588C15.6334 1.85458 16.0828 1.66846 16.5513 1.66846C17.0199 1.66846 17.4692 1.85458 17.8005 2.18588C18.1318 2.51718 18.3179 2.96653 18.3179 3.43506C18.3179 3.90359 18.1318 4.35293 17.8005 4.68423L10.2946 12.1909C10.0969 12.3885 9.85259 12.5331 9.58426 12.6115L7.19167 13.311C7.12001 13.3319 7.04405 13.3332 6.97174 13.3147C6.89943 13.2961 6.83343 13.2585 6.78065 13.2057C6.72787 13.1529 6.69024 13.0869 6.67172 13.0146C6.65319 12.9423 6.65445 12.8664 6.67535 12.7947L7.37488 10.4021C7.4536 10.134 7.59852 9.89001 7.79627 9.69259L15.3021 2.18588Z" stroke="#FAFAFA" stroke-width="1.66557" stroke-linecap="round" stroke-linejoin="round"/>
</g>
<defs>
<clipPath id="clip0_129_2070">
<rect width="19.9868" height="19.9868" fill="white"/>
</clipPath>
</defs>
</svg>
