<svg width="16" height="16" viewBox="0 0 16 16" fill="none" xmlns="http://www.w3.org/2000/svg">
<g clip-path="url(#clip0_356_1908)">
<path d="M13.3247 6.66233C13.3247 9.9888 9.63444 13.4532 8.39525 14.5231C8.27981 14.6099 8.13929 14.6569 7.99485 14.6569C7.85041 14.6569 7.70989 14.6099 7.59445 14.5231C6.35527 13.4532 2.66504 9.9888 2.66504 6.66233C2.66504 5.24878 3.22657 3.89312 4.22611 2.89359C5.22564 1.89405 6.5813 1.33252 7.99485 1.33252C9.40841 1.33252 10.7641 1.89405 11.7636 2.89359C12.7631 3.89312 13.3247 5.24878 13.3247 6.66233Z" stroke="#525252" stroke-width="1.33245" stroke-linecap="round" stroke-linejoin="round"/>
<path d="M7.99477 8.66093C9.09861 8.66093 9.99345 7.76609 9.99345 6.66225C9.99345 5.55841 9.09861 4.66357 7.99477 4.66357C6.89093 4.66357 5.99609 5.55841 5.99609 6.66225C5.99609 7.76609 6.89093 8.66093 7.99477 8.66093Z" stroke="#525252" stroke-width="1.33245" stroke-linecap="round" stroke-linejoin="round"/>
</g>
<defs>
<clipPath id="clip0_356_1908">
<rect width="15.9894" height="15.9894" fill="white"/>
</clipPath>
</defs>
</svg>
