<svg width="20" height="20" viewBox="0 0 20 20" fill="none" xmlns="http://www.w3.org/2000/svg">
<path d="M11.0506 15.5332H10.3048C10.1014 15.5332 9.96582 15.6665 9.96582 15.8665C9.96582 16.0665 10.1014 16.1999 10.3048 16.1999H11.0506C11.254 16.1999 11.3895 16.0665 11.3895 15.8665C11.3895 15.6665 11.2201 15.5332 11.0506 15.5332Z" fill="#111111"/>
<path d="M6.16906 9.8335C5.96567 9.8335 5.83008 9.96683 5.83008 10.1668C5.83008 10.3335 5.96567 10.5002 6.16906 10.5002H7.52499C7.72838 10.5002 7.86398 10.3335 7.86398 10.1668C7.86398 9.96683 7.72838 9.8335 7.52499 9.8335H6.16906Z" fill="#111111"/>
<path d="M12.6779 4.79997H14.0338C14.2372 4.79997 14.3728 4.6333 14.3728 4.46663C14.3728 4.26663 14.2372 4.1333 14.0338 4.1333H12.6779C12.4745 4.1333 12.3389 4.26663 12.3389 4.46663C12.3389 4.6333 12.4745 4.79997 12.6779 4.79997Z" fill="#111111"/>
<path d="M8.54199 10.1668C8.54199 10.3335 8.67759 10.5002 8.88098 10.5002H10.2369C10.4403 10.5002 10.5759 10.3335 10.5759 10.1668C10.5759 9.96683 10.4403 9.8335 10.2369 9.8335H8.88098C8.67759 9.8335 8.54199 10.0002 8.54199 10.1668Z" fill="#111111"/>
<path d="M17.9998 9.26684C17.6947 9.50018 17.3219 9.70018 16.9151 9.76684C16.7456 9.80018 16.61 9.96684 16.6439 10.1668C16.6778 10.3335 16.8134 10.4335 16.9829 10.4335H17.0507C17.5253 10.3335 17.9998 10.1002 18.4066 9.80018C18.5422 9.70018 18.5761 9.46684 18.4405 9.33351C18.3727 9.16684 18.1354 9.13351 17.9998 9.26684Z" fill="#111111"/>
<path d="M18.9488 7.20016V7.3335C18.9488 7.70016 18.881 8.0335 18.7115 8.36683C18.6437 8.5335 18.7115 8.7335 18.881 8.80016C18.9149 8.8335 18.9827 8.8335 19.0166 8.8335C19.1522 8.8335 19.2539 8.76683 19.3217 8.6335C19.4912 8.2335 19.5929 7.80016 19.5929 7.3335C19.5929 7.26683 19.5929 7.2335 19.5929 7.16683C19.5929 7.00016 19.4234 6.8335 19.2539 6.8335C19.0844 6.86683 18.9488 7.00016 18.9488 7.20016Z" fill="#111111"/>
<path d="M14.3048 9.8335C14.1014 9.8335 13.9658 9.96683 13.9658 10.1668C13.9658 10.3335 14.1014 10.5002 14.3048 10.5002H15.6607C15.8641 10.5002 15.9997 10.3335 15.9997 10.1668C15.9997 9.96683 15.8641 9.8335 15.6607 9.8335H14.3048Z" fill="#111111"/>
<path d="M18.6104 6.0666C18.6782 6.1666 18.7799 6.23327 18.9155 6.23327C18.9833 6.23327 19.0172 6.23327 19.085 6.19994C19.2545 6.09994 19.3223 5.89994 19.2206 5.73327C18.9833 5.29994 18.6104 4.93327 18.2037 4.6666C18.0342 4.5666 17.8308 4.59993 17.7291 4.7666C17.6274 4.93327 17.6613 5.13327 17.8308 5.23327C18.1359 5.43327 18.407 5.73327 18.6104 6.0666Z" fill="#111111"/>
<path d="M15.3898 4.79997H16.3728C16.4745 4.79997 16.6101 4.79997 16.7118 4.8333H16.7457C16.9152 4.8333 17.0508 4.69997 17.0847 4.5333C17.1186 4.36663 16.983 4.19997 16.7796 4.16663C16.644 4.16663 16.5084 4.1333 16.3728 4.1333H15.3898C15.1864 4.1333 15.0508 4.26663 15.0508 4.46663C15.0508 4.6333 15.1864 4.79997 15.3898 4.79997Z" fill="#111111"/>
<path d="M8.84726 15.5332H7.49133C7.28794 15.5332 7.15234 15.6999 7.15234 15.8665C7.15234 16.0665 7.28794 16.1999 7.49133 16.1999H8.84726C9.05065 16.1999 9.18624 16.0665 9.18624 15.8665C9.18624 15.6999 9.01675 15.5332 8.84726 15.5332Z" fill="#111111"/>
<path d="M6.13569 15.5331H5.32213C5.15264 15.5331 4.98315 15.5331 4.84756 15.4998C4.67806 15.4664 4.47467 15.5998 4.44078 15.7664C4.40688 15.9331 4.54247 16.1331 4.71196 16.1664C4.91535 16.1998 5.11874 16.2331 5.32213 16.2331H6.13569C6.33908 16.2331 6.47467 16.0998 6.47467 15.8998C6.47467 15.6998 6.30518 15.5331 6.13569 15.5331Z" fill="#111111"/>
<path d="M13.2878 10.1668C13.2878 9.96683 13.1522 9.8335 12.9488 9.8335H11.5929C11.3895 9.8335 11.2539 9.96683 11.2539 10.1668C11.2539 10.3335 11.3895 10.5002 11.5929 10.5002H12.9488C13.1183 10.5002 13.2878 10.3668 13.2878 10.1668Z" fill="#111111"/>
<path d="M2.98343 14.1334C2.91563 13.9668 2.71224 13.9001 2.54275 14.0001C2.37326 14.0668 2.30546 14.2668 2.40716 14.4334C2.64444 14.8668 2.94953 15.2668 3.35631 15.5668C3.42411 15.6001 3.4919 15.6334 3.5597 15.6334C3.66139 15.6334 3.76309 15.6001 3.83088 15.5001C3.93258 15.3334 3.89868 15.1334 3.76309 15.0334C3.42411 14.8001 3.15292 14.5001 2.98343 14.1334Z" fill="#111111"/>
<path d="M2.37316 13.3333C2.54265 13.3333 2.71215 13.2 2.71215 13C2.71215 12.6 2.81384 12.2333 2.98333 11.8667C3.05113 11.7 3.01723 11.5 2.84774 11.4C2.67825 11.3 2.47486 11.3667 2.40706 11.5333C2.16977 12 2.03418 12.5 2.03418 13C2.03418 13.1667 2.16977 13.3333 2.37316 13.3333Z" fill="#111111"/>
<path d="M3.35595 10.4333C3.18646 10.5333 3.18646 10.7666 3.28815 10.8999C3.35595 10.9999 3.45764 11.0333 3.55934 11.0333C3.62714 11.0333 3.69493 10.9999 3.76273 10.9666C4.10171 10.7333 4.47459 10.5666 4.84747 10.4999C5.01697 10.4666 5.15256 10.2999 5.11866 10.0999C5.08476 9.93327 4.91527 9.79993 4.71188 9.83327C4.2712 9.9666 3.79663 10.1666 3.35595 10.4333Z" fill="#111111"/>
<path d="M10.6105 4.79997H11.3562C11.5596 4.79997 11.6952 4.66663 11.6952 4.46663C11.6952 4.26663 11.5596 4.1333 11.3562 4.1333H10.6105C10.4071 4.1333 10.2715 4.26663 10.2715 4.46663C10.2715 4.66663 10.441 4.79997 10.6105 4.79997Z" fill="#111111"/>
<path d="M16.3728 11.7334C14.4067 11.7334 12.8135 13.3001 12.8135 15.2001C12.8135 18.2334 16.1016 19.8667 16.2372 19.9667C16.2711 20.0001 16.3389 20.0001 16.4067 20.0001C16.4745 20.0001 16.5084 20.0001 16.5762 19.9667C16.7118 19.9001 19.9999 18.2334 19.9999 15.2001C19.9321 13.3001 18.3389 11.7334 16.3728 11.7334ZM16.3728 16.7001C15.5253 16.7001 14.8474 16.0334 14.8474 15.2334C14.8474 14.4001 15.5253 13.7667 16.3728 13.7667C17.2203 13.7667 17.8982 14.4334 17.8982 15.2334C17.8982 16.0334 17.1864 16.7001 16.3728 16.7001Z" fill="#111111"/>
<path d="M0 2.96644V6.1331C0 6.96644 0.677966 7.6331 1.52542 7.6331H1.69492V6.96644V2.09977V1.43311H1.52542C0.677966 1.43311 0 2.13311 0 2.96644Z" fill="#111111"/>
<path d="M8.94882 6.09977V2.93311C8.94882 2.09977 8.27086 1.43311 7.4234 1.43311H7.25391V2.09977V6.93311V7.59977H7.4234C8.27086 7.63311 8.94882 6.93311 8.94882 6.09977Z" fill="#111111"/>
<path d="M6.54254 1.43333H6.23745V0.933333C6.23745 0.4 5.83067 0 5.2883 0H3.62728C3.11881 0 2.67813 0.4 2.67813 0.933333V1.46667H2.37305V7.63333H6.54254V1.43333ZM5.55949 1.43333H3.39V0.933333C3.39 0.8 3.49169 0.666667 3.66118 0.666667H5.3222C5.45779 0.666667 5.55949 0.766667 5.55949 0.933333V1.43333Z" fill="#111111"/>
</svg>
