<svg width="24" height="24" viewBox="0 0 24 24" fill="none" xmlns="http://www.w3.org/2000/svg">
<path d="M10.2612 20.9863C10.4367 21.2901 10.689 21.5424 10.9928 21.7178C11.2966 21.8932 11.6413 21.9856 11.9921 21.9856C12.3429 21.9856 12.6876 21.8932 12.9914 21.7178C13.2952 21.5424 13.5475 21.2901 13.7229 20.9863" stroke="#FAFAFA" stroke-width="1.99868" stroke-linecap="round" stroke-linejoin="round"/>
<path d="M3.25988 15.3157C3.12933 15.4588 3.04317 15.6368 3.0119 15.8279C2.98062 16.0191 3.00556 16.2152 3.0837 16.3924C3.16183 16.5697 3.28979 16.7204 3.452 16.8262C3.61422 16.9321 3.8037 16.9885 3.99739 16.9886H19.9868C20.1805 16.9887 20.37 16.9325 20.5323 16.8268C20.6946 16.7212 20.8228 16.5707 20.9011 16.3935C20.9795 16.2164 21.0046 16.0204 20.9736 15.8292C20.9426 15.638 20.8567 15.46 20.7263 15.3167C19.3972 13.9466 17.9881 12.4906 17.9881 7.99457C17.9881 6.40433 17.3564 4.87921 16.2319 3.75473C15.1075 2.63026 13.5824 1.99854 11.9921 1.99854C10.4019 1.99854 8.87674 2.63026 7.75227 3.75473C6.62779 4.87921 5.99607 6.40433 5.99607 7.99457C5.99607 12.4906 4.586 13.9466 3.25988 15.3157Z" stroke="#FAFAFA" stroke-width="1.99868" stroke-linecap="round" stroke-linejoin="round"/>
</svg>
