<svg width="24" height="24" viewBox="0 0 24 24" fill="none" xmlns="http://www.w3.org/2000/svg">
<path d="M14.9898 1.99878H5.99575C5.46567 1.99878 4.9573 2.20935 4.58247 2.58418C4.20764 2.959 3.99707 3.46738 3.99707 3.99746V19.9869C3.99707 20.517 4.20764 21.0254 4.58247 21.4002C4.9573 21.775 5.46567 21.9856 5.99575 21.9856H17.9878C18.5179 21.9856 19.0263 21.775 19.4011 21.4002C19.7759 21.0254 19.9865 20.517 19.9865 19.9869V6.99548L14.9898 1.99878Z" stroke="#F54900" stroke-width="1.99868" stroke-linecap="round" stroke-linejoin="round"/>
<path d="M13.9912 1.99878V5.99614C13.9912 6.52622 14.2018 7.03459 14.5766 7.40942C14.9514 7.78424 15.4598 7.99482 15.9899 7.99482H19.9872" stroke="#F54900" stroke-width="1.99868" stroke-linecap="round" stroke-linejoin="round"/>
<path d="M9.9938 8.99414H7.99512" stroke="#F54900" stroke-width="1.99868" stroke-linecap="round" stroke-linejoin="round"/>
<path d="M15.9898 12.9915H7.99512" stroke="#F54900" stroke-width="1.99868" stroke-linecap="round" stroke-linejoin="round"/>
<path d="M15.9898 16.9888H7.99512" stroke="#F54900" stroke-width="1.99868" stroke-linecap="round" stroke-linejoin="round"/>
</svg>
