<svg width="19" height="19" viewBox="0 0 19 19" fill="none" xmlns="http://www.w3.org/2000/svg">
<path d="M17.3953 13.258V15.7563C17.3962 15.9883 17.3487 16.2178 17.2558 16.4303C17.1629 16.6428 17.0266 16.8336 16.8557 16.9904C16.6848 17.1472 16.483 17.2666 16.2633 17.3409C16.0436 17.4152 15.8108 17.4428 15.5798 17.4219C13.0172 17.1434 10.5556 16.2678 8.39287 14.8652C6.38072 13.5866 4.67477 11.8807 3.39617 9.86854C1.98875 7.69598 1.11288 5.22244 0.839523 2.64831C0.818712 2.41802 0.846081 2.18592 0.919887 1.96678C0.993693 1.74765 1.11232 1.54628 1.26821 1.3755C1.4241 1.20473 1.61385 1.06828 1.82536 0.974852C2.03688 0.881424 2.26553 0.833062 2.49676 0.832844H4.99511C5.39927 0.828867 5.79108 0.971985 6.09752 1.23552C6.40396 1.49906 6.60411 1.86503 6.66068 2.26523C6.76613 3.06476 6.96169 3.84979 7.24363 4.60535C7.35567 4.90343 7.37992 5.22737 7.3135 5.5388C7.24708 5.85023 7.09278 6.1361 6.86887 6.36252L5.81124 7.42016C6.99675 9.50507 8.72303 11.2313 10.8079 12.4169L11.8656 11.3592C12.092 11.1353 12.3779 10.981 12.6893 10.9146C13.0007 10.8482 13.3247 10.8724 13.6227 10.9845C14.3783 11.2664 15.1633 11.462 15.9629 11.5674C16.3674 11.6245 16.7369 11.8283 17.001 12.14C17.2651 12.4517 17.4054 12.8496 17.3953 13.258Z" stroke="#99A1AF" stroke-width="1.66557" stroke-linecap="round" stroke-linejoin="round"/>
</svg>
