<svg width="19" height="19" viewBox="0 0 19 19" fill="none" xmlns="http://www.w3.org/2000/svg">
<path d="M17.3955 13.2582V15.7566C17.3964 15.9885 17.3489 16.2181 17.256 16.4306C17.1631 16.6431 17.0268 16.8338 16.8559 16.9906C16.685 17.1474 16.4832 17.2668 16.2635 17.3411C16.0438 17.4154 15.811 17.443 15.58 17.4221C13.0174 17.1437 10.5558 16.268 8.39311 14.8655C6.38096 13.5869 4.67501 11.8809 3.39641 9.86879C1.98899 7.69622 1.11312 5.22268 0.839767 2.64856C0.818956 2.41826 0.846325 2.18616 0.920131 1.96703C0.993937 1.74789 1.11256 1.54652 1.26846 1.37575C1.42435 1.20497 1.61409 1.06852 1.82561 0.975096C2.03712 0.881669 2.26578 0.833306 2.49701 0.833089H4.99536C5.39951 0.829111 5.79132 0.972229 6.09776 1.23577C6.4042 1.4993 6.60436 1.86528 6.66092 2.26548C6.76637 3.065 6.96193 3.85003 7.24387 4.6056C7.35592 4.90367 7.38017 5.22761 7.31375 5.53905C7.24733 5.85048 7.09302 6.13634 6.86912 6.36277L5.81148 7.4204C6.997 9.50531 8.72327 11.2316 10.8082 12.4171L11.8658 11.3595C12.0922 11.1356 12.3781 10.9813 12.6895 10.9148C13.001 10.8484 13.3249 10.8727 13.623 10.9847C14.3786 11.2667 15.1636 11.4622 15.9631 11.5677C16.3676 11.6247 16.7371 11.8285 17.0012 12.1402C17.2653 12.4519 17.4056 12.8498 17.3955 13.2582Z" stroke="#0A0A0A" stroke-width="1.66557" stroke-linecap="round" stroke-linejoin="round"/>
</svg>
