<svg width="20" height="20" viewBox="0 0 20 20" fill="none" xmlns="http://www.w3.org/2000/svg">
<path d="M16.6556 8.32779C16.6556 12.4859 12.0428 16.8164 10.4938 18.1538C10.3495 18.2623 10.1739 18.321 9.99332 18.321C9.81277 18.321 9.63712 18.2623 9.49282 18.1538C7.94384 16.8164 3.33105 12.4859 3.33105 8.32779C3.33105 6.56085 4.03297 4.86628 5.28239 3.61686C6.5318 2.36744 8.22638 1.66553 9.99332 1.66553C11.7603 1.66553 13.4548 2.36744 14.7043 3.61686C15.9537 4.86628 16.6556 6.56085 16.6556 8.32779Z" stroke="#00A63E" stroke-width="1.66557" stroke-linecap="round" stroke-linejoin="round"/>
<path d="M9.99347 10.8263C11.3733 10.8263 12.4918 9.70774 12.4918 8.32794C12.4918 6.94814 11.3733 5.82959 9.99347 5.82959C8.61367 5.82959 7.49512 6.94814 7.49512 8.32794C7.49512 9.70774 8.61367 10.8263 9.99347 10.8263Z" stroke="#00A63E" stroke-width="1.66557" stroke-linecap="round" stroke-linejoin="round"/>
</svg>
