<svg width="15" height="15" viewBox="0 0 15 15" fill="none" xmlns="http://www.w3.org/2000/svg">
<path d="M7.01327 0.862482C7.04246 0.803495 7.08756 0.753842 7.14348 0.719126C7.1994 0.684411 7.26391 0.666016 7.32972 0.666016C7.39554 0.666016 7.46005 0.684411 7.51597 0.719126C7.57188 0.753842 7.61699 0.803495 7.64618 0.862482L9.18517 3.97976C9.28655 4.18493 9.43621 4.36244 9.62129 4.49705C9.80638 4.63166 10.0214 4.71934 10.2478 4.75258L13.6895 5.25625C13.7547 5.26569 13.816 5.2932 13.8664 5.33566C13.9168 5.37812 13.9543 5.43383 13.9747 5.49649C13.9951 5.55916 13.9975 5.62627 13.9817 5.69025C13.9659 5.75423 13.9326 5.81251 13.8854 5.85851L11.3964 8.28225C11.2322 8.44221 11.1094 8.63967 11.0385 8.85762C10.9676 9.07557 10.9507 9.3075 10.9893 9.53342L11.5769 12.9578C11.5884 13.023 11.5814 13.0901 11.5566 13.1515C11.5318 13.2129 11.4903 13.266 11.4367 13.3049C11.3832 13.3438 11.3197 13.3669 11.2537 13.3715C11.1877 13.3761 11.1217 13.362 11.0633 13.3309L7.98662 11.7133C7.7839 11.6069 7.55836 11.5513 7.32939 11.5513C7.10042 11.5513 6.87488 11.6069 6.67216 11.7133L3.59619 13.3309C3.53778 13.3618 3.47187 13.3757 3.40595 13.3711C3.34003 13.3664 3.27675 13.3433 3.2233 13.3044C3.16985 13.2655 3.12839 13.2124 3.10362 13.1512C3.07885 13.0899 3.07178 13.0229 3.0832 12.9578L3.67014 9.53409C3.70891 9.30806 3.69212 9.07599 3.6212 8.8579C3.55028 8.63981 3.42737 8.44224 3.26308 8.28225L0.774055 5.85918C0.726482 5.81323 0.692771 5.75485 0.676761 5.69067C0.660751 5.6265 0.663086 5.55912 0.683501 5.49621C0.703915 5.4333 0.741588 5.37739 0.792228 5.33485C0.842867 5.29231 0.904438 5.26484 0.969926 5.25558L4.41099 4.75258C4.63767 4.7196 4.85295 4.63203 5.03829 4.49741C5.22364 4.36278 5.37349 4.18513 5.47495 3.97976L7.01327 0.862482Z" stroke="#525252" stroke-width="1.33245" stroke-linecap="round" stroke-linejoin="round"/>
</svg>
