<svg width="20" height="20" viewBox="0 0 20 20" fill="none" xmlns="http://www.w3.org/2000/svg">
<path d="M12.6585 2.49854C13.0978 2.50479 13.5169 2.68439 13.8244 2.99821L16.989 6.16278C17.3028 6.4703 17.4824 6.88935 17.4886 7.32868V15.8231C17.4886 16.2648 17.3132 16.6884 17.0008 17.0008C16.6884 17.3132 16.2648 17.4886 15.8231 17.4886H4.1641C3.72237 17.4886 3.29872 17.3132 2.98637 17.0008C2.67401 16.6884 2.49854 16.2648 2.49854 15.8231V4.1641C2.49854 3.72237 2.67401 3.29872 2.98637 2.98637C3.29872 2.67401 3.72237 2.49854 4.1641 2.49854H12.6585Z" stroke="#FAFAFA" stroke-width="1.66557" stroke-linecap="round" stroke-linejoin="round"/>
<path d="M14.1574 17.4884V11.659C14.1574 11.4381 14.0697 11.2263 13.9135 11.0701C13.7573 10.9139 13.5455 10.8262 13.3246 10.8262H6.66237C6.44151 10.8262 6.22968 10.9139 6.07351 11.0701C5.91733 11.2263 5.82959 11.4381 5.82959 11.659V17.4884" stroke="#FAFAFA" stroke-width="1.66557" stroke-linecap="round" stroke-linejoin="round"/>
<path d="M5.82959 2.49854V5.82967C5.82959 6.05054 5.91733 6.26236 6.07351 6.41853C6.22968 6.57471 6.44151 6.66245 6.66237 6.66245H12.4919" stroke="#FAFAFA" stroke-width="1.66557" stroke-linecap="round" stroke-linejoin="round"/>
</svg>
