<svg width="22" height="22" viewBox="0 0 22 22" fill="none" xmlns="http://www.w3.org/2000/svg">
<g clip-path="url(#clip0_59_12539)">
<path d="M14.3607 18.8487V17.0536C14.3607 16.1014 13.9825 15.1882 13.3092 14.5149C12.6359 13.8416 11.7227 13.4634 10.7705 13.4634H5.38515C4.43296 13.4634 3.51977 13.8416 2.84647 14.5149C2.17318 15.1882 1.79492 16.1014 1.79492 17.0536V18.8487" stroke="#A1A1A1" stroke-width="1.79511" stroke-linecap="round" stroke-linejoin="round"/>
<path d="M8.07802 9.87283C10.0608 9.87283 11.6682 8.26543 11.6682 6.28261C11.6682 4.29978 10.0608 2.69238 8.07802 2.69238C6.09519 2.69238 4.48779 4.29978 4.48779 6.28261C4.48779 8.26543 6.09519 9.87283 8.07802 9.87283Z" stroke="#A1A1A1" stroke-width="1.79511" stroke-linecap="round" stroke-linejoin="round"/>
<path d="M19.7464 18.8487V17.0536C19.7458 16.2581 19.481 15.4854 18.9937 14.8567C18.5063 14.228 17.8239 13.7789 17.0537 13.5801" stroke="#A1A1A1" stroke-width="1.79511" stroke-linecap="round" stroke-linejoin="round"/>
<path d="M14.3611 2.80908C15.1334 3.00681 15.8179 3.45595 16.3067 4.08569C16.7955 4.71542 17.0608 5.48993 17.0608 6.28711C17.0608 7.08429 16.7955 7.8588 16.3067 8.48854C15.8179 9.11827 15.1334 9.56741 14.3611 9.76514" stroke="#A1A1A1" stroke-width="1.79511" stroke-linecap="round" stroke-linejoin="round"/>
</g>
<defs>
<clipPath id="clip0_59_12539">
<rect width="21.5413" height="21.5413" fill="white"/>
</clipPath>
</defs>
</svg>
