<svg width="20" height="20" viewBox="0 0 20 20" fill="none" xmlns="http://www.w3.org/2000/svg">
<g clip-path="url(#clip0_129_1051)">
<path d="M12.1054 18.0598C12.137 18.1387 12.192 18.206 12.263 18.2526C12.334 18.2993 12.4176 18.3232 12.5025 18.321C12.5874 18.3188 12.6697 18.2907 12.7382 18.2405C12.8067 18.1902 12.8581 18.1202 12.8857 18.0398L18.2988 2.21696C18.3254 2.14317 18.3305 2.06331 18.3135 1.98674C18.2964 1.91016 18.2578 1.84003 18.2024 1.78456C18.1469 1.72908 18.0768 1.69055 18.0002 1.67348C17.9236 1.6564 17.8438 1.66149 17.77 1.68814L1.94709 7.10123C1.86672 7.12879 1.79671 7.18028 1.74645 7.24878C1.69619 7.31727 1.66808 7.39951 1.66591 7.48444C1.66373 7.56938 1.68759 7.65294 1.73428 7.72392C1.78097 7.79491 1.84825 7.84991 1.9271 7.88155L8.53107 10.5298C8.73984 10.6134 8.92952 10.7384 9.08868 10.8972C9.24783 11.0561 9.37317 11.2456 9.45713 11.4542L12.1054 18.0598Z" stroke="#111111" stroke-width="1.66557" stroke-linecap="round" stroke-linejoin="round"/>
<path d="M18.1998 1.78809L9.08911 10.8979" stroke="#111111" stroke-width="1.66557" stroke-linecap="round" stroke-linejoin="round"/>
</g>
<defs>
<clipPath id="clip0_129_1051">
<rect width="19.9868" height="19.9868" fill="white"/>
</clipPath>
</defs>
</svg>
