<svg width="16" height="16" viewBox="0 0 16 16" fill="none" xmlns="http://www.w3.org/2000/svg">
<g clip-path="url(#clip0_59_12656)">
<path d="M11.9921 5.32988C13.0959 5.32988 13.9908 4.43504 13.9908 3.3312C13.9908 2.22736 13.0959 1.33252 11.9921 1.33252C10.8882 1.33252 9.99341 2.22736 9.99341 3.3312C9.99341 4.43504 10.8882 5.32988 11.9921 5.32988Z" stroke="#0A0A0A" stroke-width="1.33245" stroke-linecap="round" stroke-linejoin="round"/>
<path d="M3.99734 9.99345C5.10118 9.99345 5.99602 9.09861 5.99602 7.99477C5.99602 6.89093 5.10118 5.99609 3.99734 5.99609C2.8935 5.99609 1.99866 6.89093 1.99866 7.99477C1.99866 9.09861 2.8935 9.99345 3.99734 9.99345Z" stroke="#0A0A0A" stroke-width="1.33245" stroke-linecap="round" stroke-linejoin="round"/>
<path d="M11.9921 14.657C13.0959 14.657 13.9908 13.7622 13.9908 12.6583C13.9908 11.5545 13.0959 10.6597 11.9921 10.6597C10.8882 10.6597 9.99341 11.5545 9.99341 12.6583C9.99341 13.7622 10.8882 14.657 11.9921 14.657Z" stroke="#0A0A0A" stroke-width="1.33245" stroke-linecap="round" stroke-linejoin="round"/>
<path d="M5.7229 9.00049L10.2732 11.6521" stroke="#0A0A0A" stroke-width="1.33245" stroke-linecap="round" stroke-linejoin="round"/>
<path d="M10.2666 4.33691L5.7229 6.9885" stroke="#0A0A0A" stroke-width="1.33245" stroke-linecap="round" stroke-linejoin="round"/>
</g>
<defs>
<clipPath id="clip0_59_12656">
<rect width="15.9894" height="15.9894" fill="white"/>
</clipPath>
</defs>
</svg>
