<svg width="16" height="16" viewBox="0 0 16 16" fill="none" xmlns="http://www.w3.org/2000/svg">
<g clip-path="url(#clip0_59_9999)">
<path d="M7.67806 1.52947C7.70726 1.47049 7.75236 1.42083 7.80828 1.38612C7.86419 1.3514 7.9287 1.33301 7.99452 1.33301C8.06034 1.33301 8.12484 1.3514 8.18076 1.38612C8.23668 1.42083 8.28178 1.47049 8.31098 1.52947L9.84996 4.64675C9.95134 4.85192 10.101 5.02943 10.2861 5.16404C10.4712 5.29865 10.6862 5.38633 10.9126 5.41957L14.3543 5.92324C14.4195 5.93269 14.4808 5.96019 14.5312 6.00265C14.5816 6.04511 14.6191 6.10082 14.6395 6.16348C14.6599 6.22615 14.6623 6.29326 14.6465 6.35724C14.6307 6.42122 14.5974 6.47951 14.5502 6.52551L12.0612 8.94924C11.897 9.1092 11.7742 9.30666 11.7033 9.52461C11.6324 9.74257 11.6155 9.97449 11.6541 10.2004L12.2417 13.6248C12.2532 13.69 12.2462 13.7571 12.2214 13.8185C12.1966 13.8799 12.1551 13.933 12.1015 13.9719C12.0479 14.0108 11.9845 14.0339 11.9185 14.0385C11.8525 14.0431 11.7865 14.029 11.7281 13.9979L8.65142 12.3803C8.4487 12.2739 8.22315 12.2182 7.99419 12.2182C7.76522 12.2182 7.53967 12.2739 7.33695 12.3803L4.26099 13.9979C4.20258 14.0288 4.13667 14.0427 4.07075 14.038C4.00482 14.0334 3.94154 14.0103 3.8881 13.9714C3.83465 13.9325 3.79318 13.8794 3.76842 13.8182C3.74365 13.7569 3.73657 13.6899 3.74799 13.6248L4.33494 10.2011C4.37371 9.97505 4.35691 9.74298 4.28599 9.52489C4.21508 9.3068 4.09217 9.10924 3.92787 8.94924L1.43885 6.52617C1.39128 6.48023 1.35757 6.42184 1.34156 6.35767C1.32555 6.2935 1.32788 6.22612 1.3483 6.16321C1.36871 6.1003 1.40638 6.04439 1.45702 6.00184C1.50766 5.9593 1.56923 5.93183 1.63472 5.92257L5.07578 5.41957C5.30247 5.38659 5.51775 5.29902 5.70309 5.1644C5.88843 5.02977 6.03828 4.85213 6.13974 4.64675L7.67806 1.52947Z" stroke="#0A0A0A" stroke-width="1.33245" stroke-linecap="round" stroke-linejoin="round"/>
</g>
<defs>
<clipPath id="clip0_59_9999">
<rect width="15.9894" height="15.9894" fill="white"/>
</clipPath>
</defs>
</svg>
