<svg width="44" height="43" viewBox="0 0 44 43" fill="none" xmlns="http://www.w3.org/2000/svg">
<path d="M21.0481 2.58914C21.1357 2.41211 21.2711 2.26309 21.4389 2.15891C21.6067 2.05472 21.8003 1.99951 21.9979 1.99951C22.1954 1.99951 22.389 2.05472 22.5568 2.15891C22.7246 2.26309 22.86 2.41211 22.9476 2.58914L27.5664 11.9447C27.8707 12.5605 28.3198 13.0932 28.8753 13.4972C29.4308 13.9012 30.076 14.1643 30.7556 14.2641L41.0849 15.7757C41.2806 15.8041 41.4645 15.8866 41.6157 16.014C41.767 16.1414 41.8795 16.3086 41.9407 16.4967C42.0019 16.6848 42.0092 16.8862 41.9618 17.0782C41.9145 17.2702 41.8143 17.4452 41.6727 17.5832L34.2027 24.8573C33.71 25.3374 33.3414 25.93 33.1286 26.5841C32.9158 27.2382 32.8651 27.9343 32.981 28.6123L34.7445 38.8896C34.7791 39.0853 34.758 39.2867 34.6835 39.4709C34.6091 39.655 34.4845 39.8146 34.3237 39.9314C34.163 40.0481 33.9727 40.1173 33.7745 40.1311C33.5763 40.1449 33.3783 40.1027 33.2029 40.0093L23.9694 35.1546C23.361 34.8352 22.6841 34.6682 21.9969 34.6682C21.3097 34.6682 20.6328 34.8352 20.0244 35.1546L10.7928 40.0093C10.6175 40.1021 10.4197 40.1439 10.2219 40.1298C10.024 40.1158 9.8341 40.0465 9.67369 39.9298C9.51329 39.8131 9.38884 39.6538 9.31451 39.4699C9.24017 39.2861 9.21894 39.085 9.25321 38.8896L11.0148 28.6143C11.1311 27.936 11.0807 27.2395 10.8679 26.585C10.655 25.9304 10.2862 25.3375 9.79307 24.8573L2.32303 17.5852C2.18025 17.4473 2.07908 17.2721 2.03103 17.0795C1.98298 16.8869 1.98999 16.6847 2.05126 16.4959C2.11252 16.3071 2.22559 16.1393 2.37757 16.0116C2.52955 15.8839 2.71433 15.8015 2.91087 15.7737L13.2382 14.2641C13.9185 14.1651 14.5646 13.9023 15.1208 13.4983C15.6771 13.0942 16.1268 12.5611 16.4313 11.9447L21.0481 2.58914Z" stroke="#525252" stroke-width="3.99895" stroke-linecap="round" stroke-linejoin="round"/>
</svg>
