<svg width="13" height="13" viewBox="0 0 13 13" fill="none" xmlns="http://www.w3.org/2000/svg">
<path d="M6.13284 0.75431C6.15837 0.702731 6.19781 0.659315 6.2467 0.62896C6.2956 0.598605 6.352 0.58252 6.40955 0.58252C6.4671 0.58252 6.52351 0.598605 6.5724 0.62896C6.6213 0.659315 6.66074 0.702731 6.68626 0.75431L8.03195 3.48006C8.12061 3.65947 8.25147 3.81468 8.41331 3.93238C8.57515 4.05008 8.76313 4.12676 8.96112 4.15582L11.9706 4.59623C12.0276 4.60449 12.0812 4.62854 12.1252 4.66566C12.1693 4.70279 12.2021 4.7515 12.2199 4.8063C12.2377 4.86109 12.2399 4.91978 12.2261 4.97572C12.2123 5.03166 12.1831 5.08263 12.1418 5.12285L9.96544 7.24217C9.82191 7.38204 9.71452 7.55469 9.65251 7.74527C9.59051 7.93585 9.57575 8.13865 9.6095 8.3362L10.1233 11.3305C10.1334 11.3875 10.1272 11.4462 10.1055 11.4998C10.0839 11.5535 10.0475 11.6 10.0007 11.634C9.95388 11.668 9.89843 11.6882 9.84069 11.6922C9.78296 11.6962 9.72525 11.6839 9.67416 11.6567L6.98395 10.2423C6.80669 10.1492 6.60947 10.1006 6.40926 10.1006C6.20905 10.1006 6.01184 10.1492 5.83458 10.2423L3.14494 11.6567C3.09387 11.6838 3.03624 11.6959 2.9786 11.6918C2.92096 11.6877 2.86562 11.6675 2.81889 11.6336C2.77216 11.5996 2.7359 11.5531 2.71424 11.4996C2.69258 11.446 2.6864 11.3874 2.69638 11.3305L3.20961 8.33678C3.24351 8.13914 3.22882 7.93621 3.16681 7.74552C3.1048 7.55482 2.99733 7.38207 2.85367 7.24217L0.677264 5.12343C0.635667 5.08326 0.606189 5.0322 0.59219 4.97609C0.578191 4.91998 0.580233 4.86106 0.598083 4.80605C0.615934 4.75105 0.648875 4.70216 0.693154 4.66496C0.737434 4.62776 0.791271 4.60374 0.848534 4.59564L3.8574 4.15582C4.05562 4.12698 4.24386 4.05041 4.40592 3.93269C4.56799 3.81498 4.69902 3.65964 4.78773 3.48006L6.13284 0.75431Z" fill="white" stroke="white" stroke-width="1.1651" stroke-linecap="round" stroke-linejoin="round"/>
</svg>
