<svg width="12" height="13" viewBox="0 0 12 13" fill="none" xmlns="http://www.w3.org/2000/svg">
<path d="M1.16706 7.57463C1.05682 7.57501 0.948734 7.5441 0.855365 7.48549C0.761995 7.42688 0.687171 7.34299 0.639586 7.24355C0.592001 7.14411 0.573608 7.0332 0.586545 6.92373C0.599481 6.81425 0.643216 6.71069 0.712667 6.62508L6.47991 0.68307C6.52317 0.633135 6.58212 0.599391 6.64709 0.587376C6.71206 0.575362 6.77918 0.585792 6.83744 0.616953C6.8957 0.648115 6.94163 0.698156 6.9677 0.758865C6.99377 0.819573 6.99842 0.88734 6.9809 0.951043L5.86241 4.45799C5.82943 4.54626 5.81835 4.64122 5.83013 4.73471C5.84191 4.8282 5.87619 4.91744 5.93004 4.99477C5.98388 5.0721 6.05568 5.13522 6.13928 5.1787C6.22288 5.22218 6.31577 5.24474 6.41 5.24443H10.4879C10.5981 5.24406 10.7062 5.27497 10.7995 5.33358C10.8929 5.39218 10.9677 5.47608 11.0153 5.57552C11.0629 5.67496 11.0813 5.78586 11.0684 5.89534C11.0554 6.00482 11.0117 6.10838 10.9422 6.19399L5.175 12.136C5.13174 12.1859 5.07278 12.2197 5.00782 12.2317C4.94285 12.2437 4.87573 12.2333 4.81747 12.2021C4.75921 12.171 4.71328 12.1209 4.68721 12.0602C4.66114 11.9995 4.65648 11.9317 4.67401 11.868L5.7925 8.36108C5.82548 8.27281 5.83656 8.17785 5.82478 8.08436C5.813 7.99087 5.77872 7.90163 5.72487 7.8243C5.67103 7.74697 5.59923 7.68385 5.51563 7.64037C5.43203 7.59688 5.33913 7.57433 5.2449 7.57463H1.16706Z" stroke="#737373" stroke-width="1.1651" stroke-linecap="round" stroke-linejoin="round"/>
</svg>
