<svg width="20" height="20" viewBox="0 0 20 20" fill="none" xmlns="http://www.w3.org/2000/svg">
<g clip-path="url(#clip0_59_11132)">
<path d="M9.99385 18.3212C14.5932 18.3212 18.3217 14.5927 18.3217 9.99336C18.3217 5.39402 14.5932 1.66553 9.99385 1.66553C5.39451 1.66553 1.66602 5.39402 1.66602 9.99336C1.66602 14.5927 5.39451 18.3212 9.99385 18.3212Z" stroke="white" stroke-width="1.66557" stroke-linecap="round" stroke-linejoin="round"/>
<path d="M9.99347 10.8263C11.3733 10.8263 12.4918 9.70774 12.4918 8.32794C12.4918 6.94814 11.3733 5.82959 9.99347 5.82959C8.61367 5.82959 7.49512 6.94814 7.49512 8.32794C7.49512 9.70774 8.61367 10.8263 9.99347 10.8263Z" stroke="white" stroke-width="1.66557" stroke-linecap="round" stroke-linejoin="round"/>
<path d="M5.8291 17.2069V15.8228C5.8291 15.3811 6.00458 14.9574 6.31693 14.6451C6.62929 14.3327 7.05293 14.1572 7.49467 14.1572H12.4914C12.9331 14.1572 13.3567 14.3327 13.6691 14.6451C13.9815 14.9574 14.1569 15.3811 14.1569 15.8228V17.2069" stroke="white" stroke-width="1.66557" stroke-linecap="round" stroke-linejoin="round"/>
</g>
<defs>
<clipPath id="clip0_59_11132">
<rect width="19.9868" height="19.9868" fill="white"/>
</clipPath>
</defs>
</svg>
