<svg width="24" height="24" viewBox="0 0 24 24" fill="none" xmlns="http://www.w3.org/2000/svg">
<path d="M11.9922 21.9853C17.5114 21.9853 21.9856 17.5111 21.9856 11.9919C21.9856 6.47273 17.5114 1.99854 11.9922 1.99854C6.47298 1.99854 1.99878 6.47273 1.99878 11.9919C1.99878 17.5111 6.47298 21.9853 11.9922 21.9853Z" stroke="#FAFAFA" stroke-width="1.99868" stroke-linecap="round" stroke-linejoin="round"/>
<path d="M11.9922 12.9916C13.6479 12.9916 14.9902 11.6494 14.9902 9.99362C14.9902 8.33786 13.6479 6.99561 11.9922 6.99561C10.3364 6.99561 8.99414 8.33786 8.99414 9.99362C8.99414 11.6494 10.3364 12.9916 11.9922 12.9916Z" stroke="#FAFAFA" stroke-width="1.99868" stroke-linecap="round" stroke-linejoin="round"/>
<path d="M6.99536 20.6484V18.9874C6.99536 18.4574 7.20594 17.949 7.58076 17.5742C7.95559 17.1993 8.46396 16.9888 8.99404 16.9888H14.9901C15.5202 16.9888 16.0285 17.1993 16.4034 17.5742C16.7782 17.949 16.9888 18.4574 16.9888 18.9874V20.6484" stroke="#FAFAFA" stroke-width="1.99868" stroke-linecap="round" stroke-linejoin="round"/>
</svg>
