<svg width="20" height="20" viewBox="0 0 20 20" fill="none" xmlns="http://www.w3.org/2000/svg">
<path d="M15.8228 5.82967V3.33132C15.8228 3.11045 15.7351 2.89863 15.5789 2.74245C15.4227 2.58627 15.2109 2.49854 14.99 2.49854H4.16386C3.72212 2.49854 3.29848 2.67401 2.98612 2.98637C2.67377 3.29872 2.49829 3.72237 2.49829 4.1641C2.49829 4.60584 2.67377 5.02948 2.98612 5.34183C3.29848 5.65419 3.72212 5.82967 4.16386 5.82967H16.6556C16.8765 5.82967 17.0883 5.91741 17.2445 6.07358C17.4007 6.22976 17.4884 6.44158 17.4884 6.66245V9.99358M17.4884 9.99358H14.99C14.5483 9.99358 14.1247 10.1691 13.8123 10.4814C13.5 10.7938 13.3245 11.2174 13.3245 11.6591C13.3245 12.1009 13.5 12.5245 13.8123 12.8369C14.1247 13.1492 14.5483 13.3247 14.99 13.3247H17.4884C17.7093 13.3247 17.9211 13.237 18.0773 13.0808C18.2334 12.9246 18.3212 12.7128 18.3212 12.4919V10.8264C18.3212 10.6055 18.2334 10.3937 18.0773 10.2375C17.9211 10.0813 17.7093 9.99358 17.4884 9.99358Z" stroke="white" stroke-opacity="0.8" stroke-width="1.66557" stroke-linecap="round" stroke-linejoin="round"/>
<path d="M2.49829 4.16406V15.823C2.49829 16.2648 2.67377 16.6884 2.98612 17.0008C3.29848 17.3131 3.72212 17.4886 4.16386 17.4886H16.6556C16.8765 17.4886 17.0883 17.4009 17.2445 17.2447C17.4007 17.0885 17.4884 16.8767 17.4884 16.6558V13.3247" stroke="white" stroke-opacity="0.8" stroke-width="1.66557" stroke-linecap="round" stroke-linejoin="round"/>
</svg>
